<?xml version="1.0" encoding="utf-8"?>
<!-- Generator: Adobe Illustrator 22.0.1, SVG Export Plug-In . SVG Version: 6.00 Build 0)  -->
<svg version="1.1" id="Capa_1" xmlns="http://www.w3.org/2000/svg" xmlns:xlink="http://www.w3.org/1999/xlink" x="0px" y="0px"
	 viewBox="0 0 100 100" style="enable-background:new 0 0 100 100;" xml:space="preserve">
<style type="text/css">
	.st0{fill:none;}
	.st1{fill:#CECECE;}
</style>
<g>
	<path class="st0" d="M142,115.5c0.9,0,1.6-0.7,1.6-1.6c0-0.9-0.7-1.6-1.6-1.6c-0.8,0-1.6,0.7-1.6,1.6
		C140.4,114.8,141.1,115.5,142,115.5z"/>
	<path class="st0" d="M110.4-25.6c0.9,0,1.6-0.7,1.6-1.6c0-0.9-0.7-1.6-1.6-1.6c-0.9,0-1.6,0.7-1.6,1.6
		C108.8-26.4,109.5-25.7,110.4-25.6z"/>
	<path class="st1" d="M69.9,39.3c0.9-0.1,1.5-1,1.3-1.8c-0.1-0.9-1-1.4-1.8-1.3c-0.8,0.1-1.4,1-1.3,1.8
		C68.3,38.9,69.1,39.4,69.9,39.3z"/>
	<path class="st1" d="M26.5,99.3c0-0.1,0-0.1,0-0.2c-1.1,0.2-2.1,0.4-3.2,0.5c-1.1,0.1-2.1,0.2-3.2,0.3H26c0.2-0.2,0.3-0.3,0.5-0.5
		C26.5,99.4,26.5,99.4,26.5,99.3z"/>
	<path class="st1" d="M1.4,99.5C1,99.6,0.6,99.8,0.2,100h8.4c-2.1-0.1-4.3-0.4-6.4-0.7C1.9,99.3,1.6,99.3,1.4,99.5z"/>
	<path class="st1" d="M90.1,69.7c-0.1-0.5-0.3-0.7-0.8-0.7c-2.4-0.5-4.7-1.5-6.7-2.8c-0.4-0.2-0.6-0.6-1-0.9c1.5-0.8,3-0.7,4.6-0.9
		c-0.2-0.2-0.3-0.4-0.4-0.5c-1.1-1.4-2.1-2.7-3.1-4.1c-0.3-0.5-0.6-1.1-0.7-1.6c-0.1-0.7,0.2-0.9,0.9-0.6c0.4,0.2,0.8,0.3,1.2,0.4
		c0.8,0.2,1.6,0.3,2.4,0.5c0.2,0,0.4,0.1,0.5,0.3c0.6,0.7,1.1,1.4,1.7,2.1c0,0,0.1,0.1,0.1,0.1c0.1,0,0.1,0,0.2,0
		c0-1.1-0.1-2.1,0-3.2c0.5-7.1,1.8-14,4.1-20.7c0.1-0.2,0.1-0.6,0-0.8c-0.6-2.4-1.3-4.7-1.9-7.1c-0.2-0.8-0.2-1.6-0.1-2.4
		c0.1-0.8,0.5-1.5,1.2-2.1c0.9-0.8,1.7-1.6,2.6-2.3c1-0.8,2.1-1.5,3.2-2.2c0.6-0.4,1.2-0.7,1.9-0.8V9.7c-1.6,1.1-3.1,2.3-4.7,3.4
		c-6.4,4.6-13.5,7.8-21.1,9.7c-2.6,0.7-5.3,1.2-8,1.8c-0.5,0.1-0.7,0.3-0.7,0.8c-0.5,2.4-1.5,4.7-2.8,6.7c-0.2,0.4-0.6,0.6-0.9,1
		c-0.8-1.5-0.7-3-0.9-4.6c-0.2,0.2-0.4,0.3-0.5,0.4c-1.4,1.1-2.7,2.1-4.1,3.1c-0.5,0.3-1.1,0.6-1.6,0.7c-0.7,0.1-0.9-0.2-0.6-0.9
		c0.2-0.4,0.3-0.8,0.4-1.2c0.2-0.8,0.3-1.6,0.5-2.4c0-0.2,0.1-0.4,0.3-0.5c0.7-0.6,1.4-1.1,2.1-1.7c0,0,0.1-0.1,0.1-0.1
		c0-0.1,0-0.1,0-0.2c-1.1,0-2.1,0.1-3.2,0c-7.1-0.5-14-1.8-20.7-4.1c-0.2-0.1-0.6-0.1-0.8,0c-2.4,0.6-4.7,1.3-7.1,1.9
		c-0.8,0.2-1.6,0.2-2.4,0.1c-0.8-0.1-1.5-0.5-2.1-1.2c-0.8-0.9-1.6-1.7-2.3-2.6c-0.8-1-1.5-2.1-2.2-3.2c-0.6-0.9-0.9-1.9-1.1-2.9
		c-0.1-0.8-0.4-1.5-0.6-2.2c-0.2-0.8-0.1-0.9,0.7-0.9c0.1,0,0.3,0,0.6,0c-0.4-0.3-0.7-0.5-0.5-1c0,0-0.1-0.2-0.2-0.2
		C12.7,6.5,10.3,3.3,8.2,0H0v16.8c1.1,0.5,2.2,1.1,3.3,1.7c1.6,0.9,3.1,1.8,4.6,2.6c0.3-0.3,0.6-0.6,0.9-0.8c1-0.6,1.9-1.1,2.9-1.6
		c0.2-0.1,0.5-0.2,0.8-0.3c0.4-0.1,0.6,0,0.7,0.4c0.1,0.3,0.1,0.6,0.1,0.9c0,1.6-0.1,3.1-0.5,4.7c0,0.2,0,0.4,0.2,0.5
		c2.2,2.1,4.4,4.1,6.5,6.3c2.6,2.7,5,5.5,7,8.7c1.4,2.2,2.7,4.6,3.4,7.2c0.2,0.8,0.4,1.7,0.2,2.5c-0.2,1-0.8,1.3-1.7,0.9
		c-0.5-0.2-1-0.5-1.5-0.8c-0.8-0.5-1.5-1.1-2.3-1.6c-0.1-0.1-0.2-0.1-0.3-0.1c0,0.1-0.1,0.2-0.1,0.3c0.1,0.4,0.3,0.8,0.5,1.1
		c0.6,0.7,1.3,1.3,2,2c0.4,0.4,0.9,0.7,1.2,1.1c0.3,0.3,0.3,0.7-0.1,0.9c-0.2,0.1-0.5,0.3-0.7,0.3c-0.7,0.1-1.4,0.2-2,0.2
		c-3-0.3-5.9-1.1-8.8-2.1c-4.1-1.5-8.1-3.2-12.2-4.5C2.8,46.9,1.4,46.5,0,46v28.6c1.6-0.5,3.1-1.1,4.6-1.8c1.6-0.7,3.2-1.7,4.8-2.5
		c0,0,0-0.1,0-0.1c-0.3-0.1-0.6-0.3-0.9-0.3c-1.6-0.2-3.3-0.4-4.9-0.6c-0.2,0-0.3,0-0.5,0c-0.3,0-0.3-0.2-0.2-0.4
		c0.5-0.8,0.9-1.6,1.4-2.3c0.6-1,1.3-1.9,1.8-3c0.3-0.6,0.6-1,1-1.5c0.9-1,1.4-2.2,2-3.4c0.4-0.7,1-1.4,1.5-2
		c0.2-0.2,0.8-0.2,1.1-0.1c1.1,0.3,2.2,0.6,3.2,1.1c2.6,1.2,5.1,2.4,7.6,3.6c0.5,0.2,0.9,0.4,1.4,0.6c1.3,0.6,2.6,0.4,3.7-0.3
		c8.4-5.4,16.8-10.7,25-16.2c4.5-3,8.7-6.4,13.1-9.7c3-2.3,6.3-4.2,9.8-5.7c0.8-0.3,1.6-0.4,2.5-0.5c0.3,0,0.7,0,1,0.1
		c0.6,0.2,0.8,0.5,0.5,1.1c-0.3,0.6-0.8,1.1-1.1,1.7c-0.6,1-1.2,2-1.7,3.1c-0.2,0.4-0.2,1-0.2,1.5c0,0.1,0.1,0.2,0.2,0.4
		c0.1-0.1,0.3-0.1,0.4-0.2c0.7-0.9,1.4-1.8,2.1-2.7c0.5-0.6,1-1.1,1.5-1.6c0.9-0.8,1.8-0.6,2.4,0.5c0.5,1,0.6,2,0.7,3.1
		c0.1,3.4-0.6,6.6-1.5,9.8c-1.3,4.5-3.2,8.8-5.4,12.9c-1.7,3.3-3.7,6.5-5.5,9.8c-0.2,0.3-0.2,0.4,0,0.7c0.9,1.7,1.7,3.6,2.2,5.5
		c0.1,0.4,0.1,0.8,0.2,1.2c0.1,0.5-0.2,0.7-0.7,0.7c-0.3,0-0.7,0-1-0.1c-1.4-0.3-2.7-0.6-4-0.9c-0.5-0.1-0.9-0.4-1.4-0.6
		c-1.5,1.6-3.1,3.2-4.6,4.8c-5.5,5.7-11.9,10-19.1,13.2c-2.5,1.1-5,2.1-7.6,3.2c-0.5,0.2-0.6,0.4-0.6,0.9c0,0.9-0.1,1.7-0.3,2.6H100
		v-3.5c-3.8-5.8-6.4-12-8.1-18.8C91.2,75.1,90.7,72.4,90.1,69.7z"/>
	<path class="st1" d="M19.1,50.5c0.7-0.1,1.2-0.7,1.1-1.4c-0.1-0.7-0.7-1.2-1.4-1.1c-0.7,0.1-1.2,0.7-1.1,1.4
		C17.7,50,18.4,50.5,19.1,50.5z"/>
	<path d="M15.6,9.7c-0.2,0.4,0.1,0.7,0.5,1c-0.3,0-0.4,0-0.6,0c-0.8,0-0.9,0.1-0.7,0.9c0.2,0.7,0.4,1.5,0.6,2.2c0.2,1,0.5,2,1.1,2.9
		c0.7,1.1,1.4,2.2,2.2,3.2c0.7,0.9,1.6,1.7,2.3,2.6c0.6,0.7,1.3,1.1,2.1,1.2c0.8,0.1,1.6,0.1,2.4-0.1c2.4-0.6,4.7-1.3,7.1-1.9
		c0.3-0.1,0.6-0.1,0.8,0c6.7,2.3,13.6,3.6,20.7,4.1c1.1,0.1,2.1,0,3.2,0c0,0.1,0,0.1,0,0.2c0,0-0.1,0.1-0.1,0.1
		c-0.7,0.6-1.4,1.1-2.1,1.7c-0.1,0.1-0.2,0.4-0.3,0.5c-0.2,0.8-0.3,1.6-0.5,2.4c-0.1,0.4-0.2,0.8-0.4,1.2c-0.3,0.7-0.1,1,0.6,0.9
		c0.6-0.1,1.2-0.3,1.6-0.7c1.4-1,2.7-2.1,4.1-3.1c0.2-0.1,0.3-0.2,0.5-0.4c0.2,1.6,0.1,3.1,0.9,4.6c0.4-0.4,0.7-0.6,0.9-1
		c1.3-2.1,2.3-4.3,2.8-6.7c0.1-0.5,0.3-0.7,0.7-0.8c2.7-0.6,5.3-1.1,8-1.8c7.6-1.9,14.7-5.1,21.1-9.7c1.6-1.1,3.1-2.3,4.7-3.4V0H8.2
		c2.1,3.3,4.5,6.5,7.2,9.4C15.5,9.5,15.6,9.6,15.6,9.7z"/>
	<path d="M20.1,100H8.6C12.4,100.3,16.3,100.3,20.1,100z"/>
	<path d="M35.1,96.5c2.5-1,5.1-2.1,7.6-3.2c7.2-3.2,13.6-7.6,19.1-13.2c1.6-1.6,3.1-3.2,4.6-4.8c0.5,0.2,0.9,0.5,1.4,0.6
		c1.3,0.3,2.7,0.6,4,0.9c0.3,0.1,0.7,0,1,0.1c0.5,0,0.7-0.2,0.7-0.7c0-0.4-0.1-0.8-0.2-1.2c-0.5-1.9-1.3-3.7-2.2-5.5
		c-0.1-0.3-0.1-0.4,0-0.7c1.9-3.3,3.8-6.5,5.5-9.8c2.2-4.1,4.1-8.4,5.4-12.9c0.9-3.2,1.6-6.4,1.5-9.8c0-1.1-0.1-2.1-0.7-3.1
		c-0.6-1.1-1.4-1.3-2.4-0.5c-0.6,0.5-1.1,1-1.5,1.6c-0.7,0.9-1.4,1.8-2.1,2.7c-0.1,0.1-0.2,0.2-0.4,0.2c-0.1-0.1-0.2-0.3-0.2-0.4
		c0-0.5,0-1.1,0.2-1.5c0.5-1.1,1.1-2.1,1.7-3.1c0.3-0.6,0.8-1.1,1.1-1.7c0.3-0.5,0.1-0.9-0.5-1.1c-0.3-0.1-0.7-0.1-1-0.1
		c-0.8,0.1-1.7,0.2-2.5,0.5c-3.5,1.4-6.8,3.4-9.8,5.7c-4.3,3.3-8.6,6.7-13.1,9.7c-8.3,5.5-16.7,10.8-25,16.2
		c-1.2,0.7-2.4,0.9-3.7,0.3c-0.4-0.2-0.9-0.4-1.4-0.6c-2.5-1.2-5.1-2.4-7.6-3.6c-1-0.5-2.1-0.8-3.2-1.1c-0.4-0.1-0.9-0.1-1.1,0.1
		c-0.6,0.6-1.2,1.2-1.5,2C8.4,59.7,7.9,61,7,62c-0.4,0.4-0.7,0.9-1,1.5c-0.5,1-1.2,2-1.8,3c-0.5,0.8-0.9,1.6-1.4,2.3
		C2.7,69,2.7,69.1,3,69.2c0.2,0,0.3,0,0.5,0c1.6,0.2,3.3,0.4,4.9,0.6c0.3,0,0.6,0.2,0.9,0.3c0,0,0,0.1,0,0.1
		c-1.6,0.9-3.1,1.8-4.8,2.5c-1.5,0.7-3,1.3-4.6,1.8V100h0.2c0.4-0.2,0.8-0.4,1.2-0.5c0.2-0.1,0.5-0.2,0.8-0.2
		c2.1,0.3,4.3,0.5,6.4,0.7h11.5c1.1-0.1,2.1-0.2,3.2-0.3c1.1-0.1,2.1-0.4,3.2-0.5c0,0.1,0,0.1,0,0.2c0,0-0.1,0.1-0.1,0.1
		c-0.2,0.2-0.3,0.3-0.5,0.5h8.3c0.1-0.8,0.2-1.7,0.3-2.6C34.5,96.9,34.7,96.7,35.1,96.5z M69.4,36.2c0.9-0.1,1.7,0.4,1.8,1.3
		c0.1,0.9-0.4,1.7-1.3,1.8c-0.8,0.1-1.6-0.4-1.8-1.3C68,37.2,68.5,36.3,69.4,36.2z"/>
	<path d="M16.4,51.8c2.8,1.1,5.8,1.8,8.8,2.1c0.7,0.1,1.3-0.1,2-0.2c0.3,0,0.5-0.2,0.7-0.3c0.4-0.2,0.5-0.6,0.1-0.9
		c-0.4-0.4-0.8-0.7-1.2-1.1c-0.7-0.6-1.4-1.3-2-2c-0.3-0.3-0.4-0.7-0.5-1.1c0-0.1,0-0.2,0.1-0.3c0.1,0,0.2,0,0.3,0.1
		c0.8,0.5,1.5,1.1,2.3,1.6c0.5,0.3,1,0.6,1.5,0.8c0.9,0.4,1.5,0,1.7-0.9c0.2-0.9,0-1.7-0.2-2.5c-0.7-2.6-1.9-4.9-3.4-7.2
		c-2-3.2-4.4-6-7-8.7c-2.1-2.1-4.3-4.2-6.5-6.3c-0.2-0.2-0.2-0.3-0.2-0.5c0.3-1.5,0.5-3.1,0.5-4.7c0-0.3-0.1-0.6-0.1-0.9
		c-0.1-0.4-0.3-0.5-0.7-0.4c-0.3,0.1-0.5,0.1-0.8,0.3c-1,0.5-2,1-2.9,1.6c-0.3,0.2-0.6,0.5-0.9,0.8c-1.5-0.9-3.1-1.8-4.6-2.6
		c-1.1-0.6-2.2-1.2-3.3-1.7V46c1.4,0.4,2.8,0.8,4.1,1.3C8.3,48.6,12.3,50.3,16.4,51.8z M18.8,48c0.7-0.1,1.3,0.4,1.4,1.1
		c0.1,0.7-0.4,1.3-1.1,1.4c-0.7,0.1-1.3-0.4-1.4-1.1C17.6,48.7,18.1,48,18.8,48z"/>
	<path d="M98.1,20c-1.1,0.7-2.2,1.4-3.2,2.2c-0.9,0.7-1.7,1.6-2.6,2.3c-0.7,0.6-1.1,1.3-1.2,2.1c-0.1,0.8-0.1,1.6,0.1,2.4
		c0.6,2.4,1.3,4.7,1.9,7.1c0.1,0.3,0.1,0.6,0,0.8c-2.3,6.7-3.6,13.6-4.1,20.7c-0.1,1.1,0,2.1,0,3.2c-0.1,0-0.1,0-0.2,0
		c0,0-0.1-0.1-0.1-0.1c-0.6-0.7-1.1-1.4-1.7-2.1c-0.1-0.1-0.4-0.2-0.5-0.3c-0.8-0.2-1.6-0.3-2.4-0.5c-0.4-0.1-0.8-0.2-1.2-0.4
		c-0.7-0.3-1-0.1-0.9,0.6c0.1,0.6,0.3,1.2,0.7,1.6c1,1.4,2.1,2.7,3.1,4.1c0.1,0.2,0.2,0.3,0.4,0.5c-1.6,0.2-3.1,0.1-4.6,0.9
		c0.4,0.4,0.6,0.7,1,0.9c2.1,1.3,4.3,2.3,6.7,2.8c0.5,0.1,0.7,0.3,0.8,0.7c0.6,2.7,1.1,5.3,1.8,8c1.7,6.7,4.3,13,8.1,18.8V19.1
		C99.3,19.3,98.7,19.6,98.1,20z"/>
</g>
</svg>
